<svg xmlns="http://www.w3.org/2000/svg" xmlns:svgjs="http://svgjs.com/svgjs" xmlns:xlink="http://www.w3.org/1999/xlink" width="1440" height="854" preserveAspectRatio="none" version="1.1" viewBox="0 0 1440 854"><g fill="none" mask="url(&quot;#SvgjsMask1031&quot;)"><rect width="1440" height="854" x="0" y="0" fill="rgba(14, 33, 71, 1)"/><path stroke="rgba(51, 121, 194, 0.09)" stroke-width="2" d="M50.35 214C42.6 177.2 8.51 189.9 0 153.72C-16.66 82.9 -40.72 36.14 0 0C45.9 -40.72 91.18 -12.79 173.24 0C198.18 3.89 192.39 33.35 214 33.35C240.68 33.35 238.65 4.86 269.83 0C345.65 -11.82 348.91 0 428 0C494.14 0 530.12 -40.69 560.29 0C609.47 66.31 557.35 114.17 586.7 214C598.2 253.13 611.72 277.92 642 277.92C677.83 277.92 682.13 247.83 718.91 214C789.13 149.4 787.26 147.32 856 81.06C898.26 40.32 889.96 19.3 940.92 0C996.96 -21.23 1005.46 0 1070 0C1154.71 0 1173.84 -29.81 1239.42 0C1280.84 18.83 1263.87 97.27 1284 97.27C1303.42 97.27 1279.45 17.76 1318.52 0C1386.45 -30.88 1455.41 -47.15 1498 0C1545.15 52.2 1518.9 115.12 1498 198.71C1492.15 222.12 1444.5 204.75 1444.5 214C1444.5 223.66 1491.78 211.64 1498 236.53C1518.53 318.64 1498 332.26 1498 428C1498 535 1498 535 1498 642C1498 749 1551.5 802.5 1498 856C1444.5 909.5 1391 856 1284 856C1177 856 1177 856 1070 856C963 856 963 856 856 856C749 856 749 856 642 856C535 856 535 856 428 856C321 856 321 856 214 856C107 856 60.14 902.86 0 856C-46.86 819.49 -36.29 746.89 0 689.25C31.08 639.89 123.6 692.38 134.74 642C152.48 561.75 79.48 538.22 57.75 428C37.29 324.22 71.48 314.34 50.35 214"/><path stroke="rgba(51, 121, 194, 0.09)" stroke-width="2" d="M113.29 214C127.91 147.37 155.62 148.62 214 102.83C292.04 41.62 297.61 42.53 386.13 0C404.61 -8.88 407.07 0 428 0C445.51 0 456.34 -14.51 463.02 0C505.63 92.49 476.59 116.97 526.58 214C566.08 290.67 578.81 347.4 642 347.4C716.77 347.4 723.65 282.26 802.5 214C830.65 189.62 824.92 162.12 856 162.12C906.89 162.12 935.65 167.03 966.45 214C1022.83 299.97 1058.58 341.7 1030.37 428C1003.35 510.65 950.6 504.65 856 551.89C756.41 601.62 749.6 588.99 642 621.94C602.47 634.04 571.69 609.39 561.75 642C536.02 726.42 610.81 791.78 570.67 856C543.93 898.78 499.34 856 428 856C321 856 321 856 214 856C107 856 73.56 889.44 0 856C-33.44 840.8 -33.18 778.81 0 758.73C73.82 714.05 112.13 758.22 214 726.47C299.38 699.86 374.5 685.14 374.5 642C374.5 598.32 279.01 612.84 214 552.83C163.09 505.84 162.79 495.7 142.67 428C112.44 326.29 92.24 309.95 113.29 214"/><path stroke="rgba(51, 121, 194, 0.09)" stroke-width="2" d="M88.32 0C88.32 22.42 26.54 78.37 0 78.37C-17.62 78.37 -20.76 18.42 0 0C23.4 -20.76 88.32 -16.77 88.32 0"/><path stroke="rgba(51, 121, 194, 0.09)" stroke-width="2" d="M1070 99.36C1045.19 99.36 1025.84 35.33 1025.84 0C1025.84 -14.35 1047.92 0 1070 0C1098.98 0 1127.96 -16.65 1127.96 0C1127.96 33.03 1096.25 99.36 1070 99.36"/><path stroke="rgba(51, 121, 194, 0.09)" stroke-width="2" d="M1498 103.18C1471.25 103.18 1404.81 30.89 1404.81 0C1404.81 -20.7 1475.89 -24.48 1498 0C1522.48 27.11 1517.85 103.18 1498 103.18"/><path stroke="rgba(51, 121, 194, 0.09)" stroke-width="2" d="M1152.31 428C1152.31 392.8 1211.86 357.06 1284 346.48C1384.71 331.72 1411.32 344.3 1498 377.32C1518.32 385.06 1498 402.66 1498 428C1498 535 1498 535 1498 642C1498 749 1551.5 802.5 1498 856C1444.5 909.5 1391 856 1284 856C1238.14 856 1192.29 866.17 1192.29 856C1192.29 844.77 1255.22 850.97 1284 813.2C1336.74 743.97 1355.33 727.18 1355.33 642C1355.33 561.33 1340.1 540.64 1284 481.5C1238.59 433.64 1152.31 460.31 1152.31 428"/><path stroke="rgba(51, 121, 194, 0.09)" stroke-width="2" d="M768.81 856C768.81 830.46 808.64 768.81 856 768.81C914.18 768.81 979.89 832.02 979.89 856C979.89 875.61 917.94 856 856 856C812.4 856 768.81 874.06 768.81 856"/><path stroke="rgba(51, 121, 194, 0.09)" stroke-width="2" d="M176.24 214C176.24 188.17 188.71 183.06 214 172.31C314.59 129.56 344.3 93.18 428 107C470.54 114.02 466.47 160.88 466.47 214C466.47 261.93 467.37 282.77 428 309.11C341.13 367.24 285.33 409.9 214 382.95C159.45 362.34 176.24 293.49 176.24 214"/><path stroke="rgba(51, 121, 194, 0.09)" stroke-width="2" d="M3.4 0C3.4 0.86 1.02 3.01 0 3.01C-0.68 3.01 -0.8 0.71 0 0C0.9 -0.8 3.4 -0.64 3.4 0"/><path stroke="rgba(51, 121, 194, 0.09)" stroke-width="2" d="M1498 7.64C1496.02 7.64 1491.1 2.29 1491.1 0C1491.1 -1.53 1496.36 -1.81 1498 0C1499.81 2.01 1499.47 7.64 1498 7.64"/><path stroke="rgba(51, 121, 194, 0.09)" stroke-width="2" d="M606.33 428C606.33 419.37 623.57 416.88 642 416.88C702.55 416.88 764.29 418.62 764.29 428C764.29 437.56 700.24 454.75 642 454.75C621.26 454.75 606.33 438.3 606.33 428"/><path stroke="rgba(51, 121, 194, 0.09)" stroke-width="2" d="M1429.64 642C1451.43 574.46 1479.81 515.79 1498 515.79C1513.99 515.79 1498 578.89 1498 642C1498 749 1534.27 785.27 1498 856C1479.4 892.27 1399.71 891.83 1388.26 856C1365.53 784.83 1396.56 744.56 1429.64 642"/><path stroke="rgba(51, 121, 194, 0.09)" stroke-width="2" d="M0 828.21C77.27 828.21 178.33 849.01 178.33 856C178.33 862.91 77.14 868.02 0 856C-12.02 854.13 -11.9 828.21 0 828.21"/><path stroke="rgba(51, 121, 194, 0.09)" stroke-width="2" d="M261.56 856C261.56 841.76 355.49 800.52 428 800.52C454.31 800.52 459.21 837.39 459.21 856C459.21 865.13 443.61 856 428 856C344.78 856 261.56 869.5 261.56 856"/></g><defs><mask id="SvgjsMask1031"><rect width="1440" height="854" fill="#fff"/></mask></defs></svg>