<svg xmlns="http://www.w3.org/2000/svg" xmlns:svg="http://www.w3.org/2000/svg" id="svg2" width="258.667" height="258.667" version="1.1" viewBox="0 0 258.667 258.667" xml:space="preserve"><metadata id="metadata8"/><g id="g10" transform="matrix(1.3333333,0,0,-1.3333333,0,258.66667)"><g id="g12"><path style="fill:#000;fill-opacity:1;fill-rule:evenodd;stroke:none" d="m 1517.86,824.512 c 80.5,0 145.77,65.363 145.77,145.992 0,80.626 -65.27,145.986 -145.77,145.986 -80.5,0 -145.77,-65.36 -145.77,-145.986 0,-80.629 65.27,-145.992 145.77,-145.992" transform="scale(0.1)"/><path style="fill:#000;fill-opacity:1;fill-rule:evenodd;stroke:none" d="m 1519.62,1353.21 c -167.11,0 -309.15,-107.41 -361.08,-257.03 1.98,14.68 2.89,30.7 2.89,48.29 0,55.4 -31.77,115.56 -77.22,148.19 -42.49,30.69 -85.421,49.4 -136.812,49.4 H 616.383 V 588.207 h 310.258 c 61.277,0 113.789,22.527 166.149,60.137 48.44,34.636 79.36,96.265 79.36,154.636 0,2.731 -0.02,5.43 -0.07,8.114 60.38,-131.77 193.28,-223.297 347.54,-223.297 211.07,0 382.19,171.348 382.19,382.707 0,211.356 -171.12,382.706 -382.19,382.706 z M 809.703,1178.66 h 80.918 c 39.461,0 80.918,-6.91 80.918,-57.3 2.887,-45.49 -24.309,-72.46 -78.832,-72.46 l -83.004,-0.3 z M 959.836,773.25 c -16.828,-13.879 -39.574,-12.891 -60.363,-12.891 h -90.067 v 138.403 h 82.145 c 49.738,0 92.308,-12.91 94.457,-71.012 0,-18.84 -11.32,-43.59 -26.172,-54.5 z m 182.154,145.305 c -14.83,19.621 -36.37,38.16 -67.57,56.133 35.26,18.226 57.87,40.552 71.35,70.362 -4.75,-24.16 -7.27,-49.12 -7.27,-74.671 0,-17.578 1.21,-34.871 3.49,-51.824 z m 375.87,-147.168 c -109.78,0 -198.77,89.148 -198.77,199.117 0,109.966 88.99,199.116 198.77,199.116 109.78,0 198.78,-89.15 198.78,-199.116 0,-109.969 -89,-199.117 -198.78,-199.117" transform="scale(0.1)"/><path style="fill:#000;fill-opacity:1;fill-rule:evenodd;stroke:none" d="M 379.801,1065.4 H 223.605 v 278.03 H 30.9453 V 586.922 H 222.656 V 882.199 H 378.859 V 586.922 H 574.031 V 1343.43 H 379.801 V 1065.4" transform="scale(0.1)"/></g></g></svg>